<?xml version="1.0" encoding="UTF-8" standalone="no"?> <svg width="64" height="64" viewBox="0 0 64 64" fill="none" xmlns="http://www.w3.org/2000/svg">
<path d="M53.09 30.82C53.3501 30.5285 53.4863 30.1471 53.4695 29.7567C53.4527 29.3664 53.2842 28.9981 53 28.73L48.7 24.88L33 10.88C32.725 10.634 32.369 10.498 32 10.498C31.631 10.498 31.275 10.634 31 10.88L15.34 24.88L11 28.73C10.7215 28.9934 10.5475 29.3485 10.51 29.73C10.4847 30.0937 10.591 30.4544 10.8094 30.7462C11.0279 31.0381 11.3439 31.2417 11.7 31.32C11.7 31.37 14.7 31.32 14.8 31.32V52C14.8 52.3978 14.958 52.7794 15.2394 53.0607C15.5207 53.342 15.9022 53.5 16.3 53.5H26.45C26.6512 53.5067 26.8516 53.4729 27.0394 53.4005C27.2272 53.3281 27.3985 53.2187 27.5431 53.0788C27.6878 52.9388 27.8028 52.7712 27.8812 52.5858C27.9597 52.4005 28.0001 52.2013 28 52V39.56H36.1V52C36.1 52.3978 36.258 52.7794 36.5394 53.0607C36.8207 53.342 37.2022 53.5 37.6 53.5H47.66C48.0578 53.5 48.4394 53.342 48.7207 53.0607C49.002 52.7794 49.16 52.3978 49.16 52V31.35H52C52.2088 31.3436 52.4139 31.2931 52.6018 31.2017C52.7896 31.1104 52.956 30.9803 53.09 30.82ZM39.09 50.5V38.06C39.09 37.6622 38.932 37.2807 38.6507 36.9994C38.3694 36.718 37.9878 36.56 37.59 36.56H26.45C26.0522 36.56 25.6707 36.718 25.3894 36.9994C25.108 37.2807 24.95 37.6622 24.95 38.06V50.5H17.84V29.85C17.8333 29.6249 17.7783 29.4039 17.6787 29.202C17.5791 29.0001 17.4372 28.8219 17.2627 28.6796C17.0882 28.5373 16.8851 28.4343 16.6672 28.3774C16.4494 28.3205 16.2218 28.3112 16 28.35L17.38 27.12L32 14L46.66 27.12L48 28.35C47.7747 28.3064 47.5426 28.3123 47.3198 28.3675C47.0971 28.4226 46.889 28.5256 46.7101 28.6693C46.5311 28.813 46.3857 28.994 46.2838 29.1996C46.1819 29.4052 46.126 29.6306 46.12 29.86V50.5H39.09Z" fill="url(#paint0_linear_120:1384)"/>
<defs>
<linearGradient id="paint0_linear_120:1384" x1="10.54" y1="32" x2="53.45" y2="32" gradientUnits="userSpaceOnUse">
<stop stop-color="#FCD702"/>
<stop offset="0.18" stop-color="#F8B802"/>
<stop offset="0.57" stop-color="#F17901"/>
<stop offset="0.85" stop-color="#EC5101"/>
<stop offset="1" stop-color="#EA4201"/>
</linearGradient>
</defs>
</svg>
