<?xml version="1.0" standalone="no"?>
<!DOCTYPE svg PUBLIC "-//W3C//DTD SVG 20010904//EN"
 "http://www.w3.org/TR/2001/REC-SVG-20010904/DTD/svg10.dtd">
<svg version="1.0" xmlns="http://www.w3.org/2000/svg"
 width="700.000000pt" height="700.000000pt" viewBox="0 0 700.000000 700.000000"
 preserveAspectRatio="xMidYMid meet">
<metadata>
Created by potrace 1.14, written by Peter Selinger 2001-2017
</metadata>
<g transform="translate(0.000000,700.000000) scale(0.100000,-0.100000)"
fill="#000000" stroke="none">
<path d="M3433 5835 c-17 -7 -40 -22 -50 -32 -11 -10 -52 -47 -93 -83 -41 -36
-81 -72 -90 -80 -9 -8 -76 -69 -150 -134 -74 -66 -142 -127 -151 -135 -9 -9
-43 -40 -77 -70 -34 -29 -74 -65 -90 -80 -25 -24 -144 -129 -196 -174 -12 -10
-37 -33 -56 -51 -19 -17 -60 -54 -91 -81 -30 -28 -90 -81 -134 -120 -43 -38
-86 -77 -95 -85 -34 -30 -175 -156 -224 -201 -55 -49 -232 -207 -281 -250 -16
-15 -98 -87 -180 -160 -83 -74 -182 -161 -219 -194 -99 -86 -128 -163 -90
-237 45 -87 76 -98 280 -96 l169 2 2 -1134 c2 -624 5 -1149 8 -1167 3 -18 17
-46 32 -63 52 -62 25 -60 683 -60 646 0 628 -1 676 52 48 52 47 32 47 770 l0
698 21 1 c70 3 834 3 848 0 16 -3 18 -49 20 -711 3 -698 3 -709 24 -736 11
-15 33 -37 48 -48 27 -21 39 -21 627 -24 581 -2 600 -2 638 17 21 11 50 37 62
58 l24 38 2 1145 c1 630 2 1148 2 1153 1 4 76 7 169 7 189 0 213 7 265 72 57
71 41 168 -40 238 -35 30 -70 62 -257 229 -34 30 -81 73 -106 95 -25 23 -128
115 -230 206 -102 90 -187 167 -190 170 -3 3 -63 57 -135 120 -71 63 -132 117
-135 120 -3 3 -43 39 -90 80 -47 41 -102 91 -124 110 -21 19 -44 40 -50 45
-105 94 -202 181 -206 185 -3 3 -41 36 -85 75 -44 38 -85 74 -91 80 -23 22
-163 147 -185 166 -37 31 -156 139 -216 194 -98 90 -165 113 -240 80z m217
-500 c74 -66 141 -127 150 -135 9 -8 49 -44 90 -80 40 -36 78 -70 84 -75 6 -6
56 -51 111 -100 55 -49 102 -92 105 -95 3 -3 86 -77 185 -164 99 -87 187 -166
195 -175 9 -9 51 -47 95 -86 44 -38 85 -74 91 -80 8 -8 107 -96 178 -160 145
-129 211 -189 256 -232 l55 -53 -33 0 c-69 0 -133 -46 -156 -113 -9 -26 -12
-313 -11 -1171 0 -1003 -2 -1136 -15 -1137 -77 -5 -729 -3 -740 2 -13 6 -15
91 -15 686 1 373 -3 693 -8 712 -13 51 -45 88 -91 106 -36 15 -112 17 -672 17
-347 0 -642 -3 -655 -7 -40 -12 -90 -56 -105 -91 -12 -27 -14 -157 -14 -729 0
-549 -3 -695 -12 -696 -58 -4 -752 -3 -759 2 -5 3 -9 485 -9 1148 0 1030 -2
1146 -16 1174 -30 58 -88 97 -146 97 l-33 1 40 37 c22 20 76 69 119 107 44 39
84 75 90 81 11 10 67 60 201 179 43 39 88 79 99 90 12 11 62 56 111 99 50 44
95 85 100 90 6 6 71 65 145 131 74 65 155 138 180 161 213 197 664 593 669
587 3 -5 67 -62 141 -128z"/>
</g>
</svg>
